# xmcd CD database file
#
# Track frame offsets:
#	150
#	12578
#	26426
#	37409
#	55189
#	81008
#	106474
#	132273
#	146702
#	158212
#	172424
#	183988
#	198298
#	212864
#	226426
#	236742
#	249273
#	263177
#	278143
#
# Disc length: 3911 seconds
#
# Revision: 5
# Processed by: cddbd v1.5.2PL0 Copyright (c) Steve Scherf et al.
# Submitted via: CDex 1.51
#
DISCID=1a0f4513
DTITLE=Miles Davis - Vol.4 - Out of the Blue - Miles Ahead 1948-1950
DYEAR=1900
DGENRE=Jazz
TTITLE0=Marmaduke (Charlie Parker) Charlie Parker All Stars
TTITLE1=Steeplechase (Charlie Parker) Charlie Parker All Stars
TTITLE2=Merry-Go-Round (Charlie Parker) Charlie Parker All Stars
TTITLE3=52nd Street Theme (Thelonious Monk) Miles Davis Quintet
TTITLE4=Half Nelson (Miles Davis) Miles Davis Quintet
TTITLE5=You Got To My Head (Gillespie - Coots) Miles Davis Quintet
TTITLE6=Chasin' The Bird (Charlie Parker) Miles Davis Quintet
TTITLE7=Jeru (Gerry Mulligan) Miles Davis Nonet
TTITLE8=Mouve (Denzil Best) Miles Davis Nonet
TTITLE9=Godchild (George Wallington) Miles Davis Nonet
TTITLE10=Budo (Bud Powell - Miles Davis) Miles Davis Nonet
TTITLE11=Venus de Milo (Gerry Mulligan) Miles Davis Nonet
TTITLE12=Rouge (John Levws) Miles Davis Nonet
TTITLE13=Boplicity (Cleo Henry) Miles Davis Nonet
TTITLE14=Israel (Johnny Carisi) Miles Davis Nonet
TTITLE15=Deception (Miles Davis) Miles Davis Nonet
TTITLE16=Rocker (Gerry Mulligan) Miles Davis Nonet
TTITLE17=Moon Dreams (Chummy MacGregor - Johnny Mercer) Miles Davis Nonet
TTITLE18=Darn That Dream (Jimmy Van Heusen - Eddie De Lange) Miles Davis Nonet
EXTD=
EXTT0=
EXTT1=
EXTT2=
EXTT3=
EXTT4=
EXTT5=
EXTT6=
EXTT7=
EXTT8=
EXTT9=
EXTT10=
EXTT11=
EXTT12=
EXTT13=
EXTT14=
EXTT15=
EXTT16=
EXTT17=
EXTT18=
PLAYORDER=
